<?xml version="1.0" standalone="no"?><!DOCTYPE svg PUBLIC "-//W3C//DTD SVG 1.1//EN" "http://www.w3.org/Graphics/SVG/1.1/DTD/svg11.dtd"><svg t="1605790294113" class="icon" viewBox="0 0 1024 1024" version="1.1" xmlns="http://www.w3.org/2000/svg" p-id="3566" xmlns:xlink="http://www.w3.org/1999/xlink" width="200" height="200"><defs><style type="text/css"></style></defs><path d="M577.163636 237.381818c0-116.363636 93.090909-209.454545 209.454545-209.454545 116.363636 0 209.454545 93.090909 209.454545 209.454545 0 116.363636-93.090909 209.454545-209.454545 209.454545l-209.454545 0L577.163636 237.381818 577.163636 237.381818zM0 786.618182C0 916.945455 107.054545 1024 237.381818 1024s237.381818-107.054545 237.381818-237.381818l0-237.381818L237.381818 549.236364C107.054545 549.236364 0 656.290909 0 786.618182L0 786.618182zM446.836364 786.618182c0 116.363636-93.090909 209.454545-209.454545 209.454545-116.363636 0-209.454545-93.090909-209.454545-209.454545 0-116.363636 93.090909-209.454545 209.454545-209.454545l209.454545 0L446.836364 786.618182 446.836364 786.618182zM1024 237.381818C1024 107.054545 916.945455 0 786.618182 0c-130.327273 0-237.381818 107.054545-237.381818 237.381818l0 237.381818 237.381818 0C916.945455 474.763636 1024 367.709091 1024 237.381818L1024 237.381818zM237.381818 474.763636l237.381818 0L474.763636 237.381818C474.763636 107.054545 367.709091 0 237.381818 0 107.054545 0 0 107.054545 0 237.381818 0 367.709091 107.054545 474.763636 237.381818 474.763636L237.381818 474.763636zM237.381818 27.927273c116.363636 0 209.454545 93.090909 209.454545 209.454545l0 209.454545L237.381818 446.836364c-116.363636 0-209.454545-93.090909-209.454545-209.454545C27.927273 121.018182 121.018182 27.927273 237.381818 27.927273L237.381818 27.927273zM786.618182 549.236364l-237.381818 0 0 237.381818c0 130.327273 107.054545 237.381818 237.381818 237.381818s237.381818-107.054545 237.381818-237.381818S916.945455 549.236364 786.618182 549.236364L786.618182 549.236364zM786.618182 996.072727c-116.363636 0-209.454545-93.090909-209.454545-209.454545l0-209.454545 209.454545 0c116.363636 0 209.454545 93.090909 209.454545 209.454545C996.072727 902.981818 902.981818 996.072727 786.618182 996.072727L786.618182 996.072727zM786.618182 935.563636" p-id="3567"></path></svg>