<?xml version="1.0" standalone="no"?><!DOCTYPE svg PUBLIC "-//W3C//DTD SVG 1.1//EN" "http://www.w3.org/Graphics/SVG/1.1/DTD/svg11.dtd"><svg t="1605790088574" class="icon" viewBox="0 0 1024 1024" version="1.1" xmlns="http://www.w3.org/2000/svg" p-id="1210" xmlns:xlink="http://www.w3.org/1999/xlink" width="200" height="200"><defs><style type="text/css"></style></defs><path d="M288 426.666667a53.333333 53.333333 0 1 0 53.333333 53.333333 53.333333 53.333333 0 0 0-53.333333-53.333333z m0 64a10.666667 10.666667 0 1 1 10.666667-10.666667 10.666667 10.666667 0 0 1-10.666667 10.666667zM522.666667 426.666667a53.333333 53.333333 0 1 0 53.333333 53.333333 53.333333 53.333333 0 0 0-53.333333-53.333333z m0 64a10.666667 10.666667 0 1 1 10.666666-10.666667 10.666667 10.666667 0 0 1-10.666666 10.666667zM757.333333 426.666667a53.333333 53.333333 0 1 0 53.333334 53.333333 53.333333 53.333333 0 0 0-53.333334-53.333333z m0 64a10.666667 10.666667 0 1 1 10.666667-10.666667 10.666667 10.666667 0 0 1-10.666667 10.666667z" fill="#666666" p-id="1211"></path><path d="M512 42.666667C224.853333 42.666667 0 229.333333 0 469.333333a413.44 413.44 0 0 0 166.826667 327.04l-42.666667 126.72a43.946667 43.946667 0 0 0 0 50.773334 29.653333 29.653333 0 0 0 21.333333 8.533333 97.066667 97.066667 0 0 0 42.666667-14.506667c31.146667-17.066667 66.986667-35.626667 95.786667-50.773333L322.133333 896a673.066667 673.066667 0 0 0 189.866667 21.333333c282.24 0 512-200.96 512-448C1024 229.333333 799.146667 42.666667 512 42.666667z m0 832a604.586667 604.586667 0 0 1-185.173333-21.333334 21.333333 21.333333 0 0 0-17.28 1.493334c-9.6 5.333333-25.813333 13.653333-45.226667 23.893333-29.226667 15.146667-65.28 33.92-96.853333 51.2l-2.346667 1.28 46.72-135.893333a21.333333 21.333333 0 0 0-7.68-24.32A373.12 373.12 0 0 1 42.666667 469.333333C42.666667 253.226667 248.746667 85.333333 512 85.333333s469.333333 168.746667 469.333333 384c0 222.72-210.56 405.333333-469.333333 405.333334z" fill="#666666" p-id="1212"></path></svg>